<?xml version="1.0" standalone="no"?>
<!DOCTYPE svg PUBLIC "-//W3C//DTD SVG 20010904//EN"
 "http://www.w3.org/TR/2001/REC-SVG-20010904/DTD/svg10.dtd">
<svg version="1.0" xmlns="http://www.w3.org/2000/svg"
 width="32.000000pt" height="32.000000pt" viewBox="0 0 32.000000 32.000000"
 preserveAspectRatio="xMidYMid meet">

<g transform="translate(0.000000,32.000000) scale(0.100000,-0.100000)"
fill="#000000" stroke="none">
<path d="M10 301 c0 -5 10 -11 22 -13 17 -2 24 -15 38 -75 14 -61 15 -73 3
-77 -8 -4 -13 -16 -11 -28 3 -22 8 -23 106 -26 65 -2 102 1 102 8 0 6 -36 10
-95 10 -126 0 -124 18 2 22 94 3 98 4 110 29 7 14 13 45 15 70 l3 44 -114 3
c-103 2 -114 4 -118 22 -4 14 -14 20 -34 20 -16 0 -29 -4 -29 -9z m276 -77
c-4 -15 -10 -39 -13 -56 l-6 -29 -81 3 -81 3 -11 53 -12 52 105 0 105 0 -6
-26z"/>
<path d="M94 56 c-10 -26 4 -48 28 -44 33 4 33 52 0 56 -13 2 -25 -3 -28 -12z
m36 -16 c0 -5 -4 -10 -10 -10 -5 0 -10 5 -10 10 0 6 5 10 10 10 6 0 10 -4 10
-10z"/>
<path d="M204 56 c-10 -26 4 -48 28 -44 33 4 33 52 0 56 -13 2 -25 -3 -28 -12z
m36 -16 c0 -5 -4 -10 -10 -10 -5 0 -10 5 -10 10 0 6 5 10 10 10 6 0 10 -4 10
-10z"/>
</g>
</svg>
